Coordinates
version=1
nRows=24
nColumns=22
inDegrees=yes

Units are S.I. units (second, meters, Newtons, ...)
If the header above contains a line with 'inDegrees', this indicates whether rotational values are in degrees (yes) or radians (no).

endheader
time	pelvis_tilt	pelvis_list	pelvis_rotation	pelvis_tx	pelvis_ty	pelvis_tz	hip_flexion_r	hip_adduction_r	hip_rotation_r	knee_angle_r	ankle_angle_r	subtalar_angle_r	hip_flexion_l	hip_adduction_l	hip_rotation_l	knee_angle_l	ankle_angle_l	subtalar_angle_l	lumbar_extension	lumbar_bending	lumbar_rotation
      3.36000000	      0.01480547	      2.54224378	    -30.92943717	     -0.29247542	      0.89095040	     -0.09627346	     -6.84543085	     -3.42368245	      6.87235768	    -35.38834551	      6.99256738	      5.28070880	     19.72691746	      0.96717023	    -13.25864561	    -26.23362395	      9.85840404	     -5.74517652	     -5.59263808	     -4.12025013	      9.32510632
      3.37000000	      0.07397250	      2.56364870	    -31.05305359	     -0.28615403	      0.89163085	     -0.09510237	     -5.71187170	     -3.49411448	      7.09688190	    -37.76317421	      6.25840333	      5.37801994	     19.12656683	      1.15557519	    -13.45235674	    -26.03175610	     10.14934524	     -5.60908544	     -5.63828313	     -4.15277938	      9.23887114
      3.38000000	      0.17032759	      2.59944914	    -31.14014797	     -0.27991497	      0.89226963	     -0.09401883	     -4.55275765	     -3.61684267	      7.15535166	    -40.14778746	      5.69303370	      5.36826479	     18.49533309	      1.39558774	    -13.61475369	    -25.79428227	     10.42117161	     -5.47662162	     -5.72262939	     -4.21546625	      9.11795674
      3.39000000	      0.31471978	      2.66685470	    -31.20527572	     -0.27371602	      0.89288073	     -0.09298820	     -3.39221227	     -3.82641005	      7.07358346	    -42.47919300	      5.33898690	      5.18088053	     17.81859895	      1.70782876	    -13.76050019	    -25.50905641	     10.67664135	     -5.36055008	     -5.83000766	     -4.33223118	      8.94765725
      3.40000000	      0.49727324	      2.75448995	    -31.24039972	     -0.26754848	      0.89347014	     -0.09203513	     -2.24231652	     -4.12694236	      6.82622946	    -44.71190712	      5.23978052	      4.63424626	     17.11011943	      2.07207323	    -13.90488163	    -25.19298687	     10.87975400	     -5.26091435	     -5.96184237	     -4.48339139	      8.75703360
      3.41000000	      0.73479562	      2.84245580	    -31.24834300	     -0.26137568	      0.89412056	     -0.09114581	     -1.16777689	     -4.49638208	      6.49231789	    -46.76642813	      5.41265933	      3.61011526	     16.31348667	      2.49766774	    -13.98257475	    -24.79368146	     11.11300471	     -5.19883488	     -6.13924038	     -4.65296675	      8.49983410
      3.42000000	      1.00857835	      2.93192980	    -31.22469942	     -0.25520480	      0.89479810	     -0.09033671	     -0.14819327	     -4.95044545	      6.02290845	    -48.63339850	      5.85646814	      2.39774672	     15.47735380	      2.95873089	    -14.03970094	    -24.36939995	     11.30112766	     -5.16721174	     -6.34607408	     -4.83356660	      8.22791286
      3.43000000	      1.29632591	      3.00430533	    -31.17583502	     -0.24905827	      0.89552084	     -0.08957495	      0.81207923	     -5.44020075	      5.48022921	    -50.27682245	      6.53314100	      0.93131107	     14.61106740	      3.42444029	    -14.05093580	    -23.92065478	     11.45901011	     -5.14791344	     -6.56878914	     -4.99594181	      7.93288458
      3.44000000	      1.58046171	      3.04506531	    -31.09600431	     -0.24295222	      0.89628767	     -0.08885729	      1.71203076	     -5.93195510	      4.88265515	    -51.67983256	      7.38584190	     -0.75942163	     13.73334743	      3.86298494	    -14.03138367	    -23.46691400	     11.59556697	     -5.13089124	     -6.80256745	     -5.11394894	      7.61348228
      3.45000000	      1.85053608	      3.05213922	    -30.99383904	     -0.23690795	      0.89710030	     -0.08814654	      2.55628671	     -6.40331595	      4.25685088	    -52.83191994	      8.34145880	     -2.59528810	     12.85470372	      4.25894984	    -13.99539637	    -23.01596828	     11.68917686	     -5.11048595	     -7.03601575	     -5.18498463	      7.26181676
      3.46000000	      2.08063321	      3.00859875	    -30.87845157	     -0.23096365	      0.89793905	     -0.08742223	      3.35811749	     -6.80024202	      3.64664396	    -53.72954304	      9.36177509	     -4.52904117	     11.99028027	      4.58436095	    -13.90308386	    -22.56659627	     11.79580343	     -5.07440450	     -7.25619798	     -5.18141229	      6.93291841
      3.47000000	      2.27606626	      2.92509658	    -30.75751708	     -0.22512960	      0.89879110	     -0.08666188	      4.12562192	     -7.13143216	      3.04942175	    -54.38569235	     10.36388086	     -6.48813332	     11.14861365	      4.84273228	    -13.79205641	    -22.13613654	     11.88650289	     -5.02424247	     -7.46171316	     -5.11989524	      6.61406825
      3.48000000	      2.43247955	      2.79906021	    -30.63291924	     -0.21942297	      0.89964979	     -0.08584632	      4.86116062	     -7.37248043	      2.49049157	    -54.80704733	     11.31368274	     -8.43104296	     10.33178411	      5.02547552	    -13.67660942	    -21.72183585	     11.96531305	     -4.96275263	     -7.65216852	     -4.99881464	      6.30073826
      3.49000000	      2.54518471	      2.64309134	    -30.51118298	     -0.21383796	      0.90047261	     -0.08496434	      5.58523125	     -7.53382857	      1.96025269	    -55.01542566	     12.16351036	    -10.31787528	      9.55393344	      5.14072519	    -13.56605033	    -21.33169331	     12.06071173	     -4.88956593	     -7.81230991	     -4.82938292	      6.02009918
      3.50000000	      2.61550993	      2.46122143	    -30.40213625	     -0.20841373	      0.90124302	     -0.08400742	      6.30877510	     -7.60450752	      1.48888235	    -55.03004662	     12.91248046	    -12.08955049	      8.82215552	      5.18786013	    -13.48620897	    -20.97161913	     12.18325535	     -4.81131194	     -7.94929401	     -4.62043521	      5.76466489
      3.51000000	      2.66062228	      2.26939615	    -30.28565877	     -0.20310693	      0.90195773	     -0.08300893	      7.02510613	     -7.62131872	      1.03573989	    -54.87347286	     13.53407528	    -13.61757345	      8.11797485	      5.20621239	    -13.37519512	    -20.61846308	     12.29935299	     -4.73559373	     -8.06995163	     -4.39516959	      5.52252241
      3.52000000	      2.66838960	      2.06736471	    -30.21048686	     -0.19798670	      0.90256426	     -0.08189896	      7.77213628	     -7.55284938	      0.67946667	    -54.58038302	     14.09218682	    -14.98858739	      7.47358774	      5.16453921	    -13.35801254	    -20.31421396	     12.47377901	     -4.66255625	     -8.16312768	     -4.15269913	      5.32342981
      3.53000000	      2.66131146	      1.87058758	    -30.15235238	     -0.19299793	      0.90308072	     -0.08072919	      8.53407757	     -7.44773822	      0.36586450	    -54.16632599	     14.58148018	    -15.99130660	      6.86074526	      5.11037393	    -13.34563397	    -20.02557941	     12.65352405	     -4.60023090	     -8.24368998	     -3.91706205	      5.15713149
      3.54000000	      2.64757084	      1.68283063	    -30.11595692	     -0.18813836	      0.90349989	     -0.07949682	      9.31173450	     -7.31610629	      0.09751360	    -53.65208113	     15.04484370	    -16.61869498	      6.27718819	      5.05002539	    -13.35158284	    -19.75956241	     12.85118728	     -4.54754236	     -8.31827460	     -3.69637676	      5.01461578
      3.55000000	      2.63354586	      1.50373673	    -30.09700111	     -0.18338209	      0.90382488	     -0.07820979	     10.09750432	     -7.17769213	     -0.16075267	    -53.04981349	     15.48998894	    -16.80240477	      5.71796152	      4.98962351	    -13.36372653	    -19.52096111	     13.07071013	     -4.50833900	     -8.39173884	     -3.49343369	      4.91412217
      3.56000000	      2.61465152	      1.35386035	    -30.11390758	     -0.17875989	      0.90403197	     -0.07684468	     10.91702366	     -7.03541655	     -0.36053538	    -52.38439794	     15.96146547	    -16.74188405	      5.19468362	      4.94679741	    -13.38254208	    -19.29945383	     13.27096242	     -4.48648344	     -8.44929485	     -3.32823923	      4.84523323
      3.57000000	      2.62910175	      1.15814095	    -30.10788358	     -0.17417125	      0.90425140	     -0.07543501	     11.63640222	     -6.86956067	     -0.62111681	    -51.60022895	     16.39592335	    -16.51612914	      4.64094384	      4.86647420	    -13.40654131	    -19.12857018	     13.56091071	     -4.45019479	     -8.56971019	     -3.13879673	      4.74425782
      3.58000000	      2.65954775	      0.95233095	    -30.11830983	     -0.16966293	      0.90443285	     -0.07396875	     12.32447168	     -6.69854749	     -0.88471998	    -50.75291050	     16.76764763	    -16.04244241	      4.07236286	      4.78360435	    -13.40860025	    -18.96170282	     13.83004203	     -4.41851204	     -8.71559662	     -2.95518885	      4.68474486
      3.59000000	      2.68880640	      0.76736694	    -30.13816762	     -0.16524214	      0.90453356	     -0.07245116	     12.99993382	     -6.53344455	     -1.12979561	    -49.83440054	     17.09906195	    -15.58563449	      3.53731004	      4.71308298	    -13.41223222	    -18.82598408	     14.10067524	     -4.39732463	     -8.85240514	     -2.79804884	      4.63187257
